<?xml version="1.0" encoding="UTF-8" standalone="no"?>
<!DOCTYPE svg PUBLIC "-//W3C//DTD SVG 1.1//EN" "http://www.w3.org/Graphics/SVG/1.1/DTD/svg11.dtd">
<svg width="100%" height="100%" viewBox="0 0 256 26" version="1.1" xmlns="http://www.w3.org/2000/svg" xmlns:xlink="http://www.w3.org/1999/xlink" xml:space="preserve" xmlns:serif="http://www.serif.com/" style="fill-rule:evenodd;clip-rule:evenodd;stroke-linejoin:round;stroke-miterlimit:2;">
    <g transform="matrix(1,0,0,1,-284.844,-120.08)">
        <g transform="matrix(1,0,0,1,224,-15)">
            <path d="M61.492,159.956C64.048,160.676 66.604,161 68.62,161C74.596,161 78.196,158.336 78.196,153.404C78.196,144.188 65.812,148.256 65.812,142.424C65.812,140.84 66.748,139.472 69.988,139.472C71.824,139.472 74.02,139.868 76.972,141.092L76.972,136.52C74.848,135.62 72.292,135.08 69.916,135.08C64.264,135.08 60.844,137.96 60.844,142.928C60.844,152.036 73.264,148.472 73.264,153.872C73.264,155.384 72.22,156.644 68.404,156.644C66.244,156.644 64.228,156.284 61.492,155.312L61.492,159.956Z" style="fill:url(#_Linear1);fill-rule:nonzero;"/>
            <path d="M95.08,151.82L87.808,135.44L82.444,135.44L82.444,160.64L87.16,160.64L87.16,144.26L94.432,160.64L99.796,160.64L99.796,135.44L95.08,135.44L95.08,151.82Z" style="fill:url(#_Linear2);fill-rule:nonzero;"/>
            <path d="M121.144,135.44L104.296,135.44L104.296,139.616L110.344,139.616L110.344,156.464L104.296,156.464L104.296,160.64L121.144,160.64L121.144,156.464L115.096,156.464L115.096,139.616L121.144,139.616L121.144,135.44Z" style="fill:url(#_Linear3);fill-rule:nonzero;"/>
            <path d="M126.184,135.44L126.184,160.64L130.972,160.64L130.972,152.648L134.032,152.648C140.332,152.648 143.824,149.264 143.824,143.504C143.824,138.428 140.62,135.44 134.788,135.44L126.184,135.44ZM130.972,148.472L130.972,139.616L134.392,139.616C137.668,139.616 138.856,140.84 138.856,144.044C138.856,147.284 137.668,148.472 134.392,148.472L130.972,148.472Z" style="fill:url(#_Linear4);fill-rule:nonzero;"/>
            <path d="M147.784,135.44L147.784,160.64L152.572,160.64L152.572,152.648L155.632,152.648C161.932,152.648 165.424,149.264 165.424,143.504C165.424,138.428 162.22,135.44 156.388,135.44L147.784,135.44ZM152.572,148.472L152.572,139.616L155.992,139.616C159.268,139.616 160.456,140.84 160.456,144.044C160.456,147.284 159.268,148.472 155.992,148.472L152.572,148.472Z" style="fill:url(#_Linear5);fill-rule:nonzero;"/>
            <path d="M185.98,135.44L169.672,135.44L169.672,160.64L185.98,160.64L185.98,156.464L174.424,156.464L174.424,149.66L184.792,149.66L184.792,145.484L174.424,145.484L174.424,139.616L185.98,139.616L185.98,135.44Z" style="fill:url(#_Linear6);fill-rule:nonzero;"/>
            <path d="M189.76,135.44L189.76,139.616L196.744,139.616L196.744,160.64L201.496,160.64L201.496,139.616L208.48,139.616L208.48,135.44L189.76,135.44Z" style="fill:url(#_Linear7);fill-rule:nonzero;"/>
            <path d="M234.292,159.956C236.848,160.676 239.404,161 241.42,161C247.396,161 250.996,158.336 250.996,153.404C250.996,144.188 238.612,148.256 238.612,142.424C238.612,140.84 239.548,139.472 242.788,139.472C244.624,139.472 246.82,139.868 249.772,141.092L249.772,136.52C247.648,135.62 245.092,135.08 242.716,135.08C237.064,135.08 233.644,137.96 233.644,142.928C233.644,152.036 246.064,148.472 246.064,153.872C246.064,155.384 245.02,156.644 241.204,156.644C239.044,156.644 237.028,156.284 234.292,155.312L234.292,159.956Z" style="fill:url(#_Linear8);fill-rule:nonzero;"/>
            <path d="M267.808,145.484L260.032,145.484L260.032,135.44L255.244,135.44L255.244,160.64L260.032,160.64L260.032,149.66L267.808,149.66L267.808,160.64L272.596,160.64L272.596,135.44L267.808,135.44L267.808,145.484Z" style="fill:url(#_Linear9);fill-rule:nonzero;"/>
            <path d="M285.16,161C291.676,161 295.492,155.888 295.492,147.248C295.492,139.616 291.964,135.08 285.952,135.08C279.4,135.08 275.548,140.192 275.548,148.832C275.548,156.464 279.112,161 285.16,161ZM285.52,156.608C281.848,156.608 280.48,154.304 280.48,148.04C280.48,141.776 281.848,139.472 285.52,139.472C289.192,139.472 290.56,141.776 290.56,148.04C290.56,154.304 289.192,156.608 285.52,156.608Z" style="fill:url(#_Linear10);fill-rule:nonzero;"/>
            <path d="M297.76,135.44L297.76,139.616L304.744,139.616L304.744,160.64L309.496,160.64L309.496,139.616L316.48,139.616L316.48,135.44L297.76,135.44Z" style="fill:url(#_Linear11);fill-rule:nonzero;"/>
        </g>
    </g>
    <defs>
        <linearGradient id="_Linear1" x1="0" y1="0" x2="1" y2="0" gradientUnits="userSpaceOnUse" gradientTransform="matrix(309,56,-6.03077,33.2769,9,117)"><stop offset="0" style="stop-color:rgb(246,135,179);stop-opacity:1"/><stop offset="1" style="stop-color:rgb(102,126,234);stop-opacity:1"/></linearGradient>
        <linearGradient id="_Linear2" x1="0" y1="0" x2="1" y2="0" gradientUnits="userSpaceOnUse" gradientTransform="matrix(309,56,-6.03077,33.2769,9,117)"><stop offset="0" style="stop-color:rgb(246,135,179);stop-opacity:1"/><stop offset="1" style="stop-color:rgb(102,126,234);stop-opacity:1"/></linearGradient>
        <linearGradient id="_Linear3" x1="0" y1="0" x2="1" y2="0" gradientUnits="userSpaceOnUse" gradientTransform="matrix(309,56,-6.03077,33.2769,9,117)"><stop offset="0" style="stop-color:rgb(246,135,179);stop-opacity:1"/><stop offset="1" style="stop-color:rgb(102,126,234);stop-opacity:1"/></linearGradient>
        <linearGradient id="_Linear4" x1="0" y1="0" x2="1" y2="0" gradientUnits="userSpaceOnUse" gradientTransform="matrix(309,56,-6.03077,33.2769,9,117)"><stop offset="0" style="stop-color:rgb(246,135,179);stop-opacity:1"/><stop offset="1" style="stop-color:rgb(102,126,234);stop-opacity:1"/></linearGradient>
        <linearGradient id="_Linear5" x1="0" y1="0" x2="1" y2="0" gradientUnits="userSpaceOnUse" gradientTransform="matrix(309,56,-6.03077,33.2769,9,117)"><stop offset="0" style="stop-color:rgb(246,135,179);stop-opacity:1"/><stop offset="1" style="stop-color:rgb(102,126,234);stop-opacity:1"/></linearGradient>
        <linearGradient id="_Linear6" x1="0" y1="0" x2="1" y2="0" gradientUnits="userSpaceOnUse" gradientTransform="matrix(309,56,-6.03077,33.2769,9,117)"><stop offset="0" style="stop-color:rgb(246,135,179);stop-opacity:1"/><stop offset="1" style="stop-color:rgb(102,126,234);stop-opacity:1"/></linearGradient>
        <linearGradient id="_Linear7" x1="0" y1="0" x2="1" y2="0" gradientUnits="userSpaceOnUse" gradientTransform="matrix(309,56,-6.03077,33.2769,9,117)"><stop offset="0" style="stop-color:rgb(246,135,179);stop-opacity:1"/><stop offset="1" style="stop-color:rgb(102,126,234);stop-opacity:1"/></linearGradient>
        <linearGradient id="_Linear8" x1="0" y1="0" x2="1" y2="0" gradientUnits="userSpaceOnUse" gradientTransform="matrix(309,56,-6.03077,33.2769,9,117)"><stop offset="0" style="stop-color:rgb(246,135,179);stop-opacity:1"/><stop offset="1" style="stop-color:rgb(102,126,234);stop-opacity:1"/></linearGradient>
        <linearGradient id="_Linear9" x1="0" y1="0" x2="1" y2="0" gradientUnits="userSpaceOnUse" gradientTransform="matrix(309,56,-6.03077,33.2769,9,117)"><stop offset="0" style="stop-color:rgb(246,135,179);stop-opacity:1"/><stop offset="1" style="stop-color:rgb(102,126,234);stop-opacity:1"/></linearGradient>
        <linearGradient id="_Linear10" x1="0" y1="0" x2="1" y2="0" gradientUnits="userSpaceOnUse" gradientTransform="matrix(309,56,-6.03077,33.2769,9,117)"><stop offset="0" style="stop-color:rgb(246,135,179);stop-opacity:1"/><stop offset="1" style="stop-color:rgb(102,126,234);stop-opacity:1"/></linearGradient>
        <linearGradient id="_Linear11" x1="0" y1="0" x2="1" y2="0" gradientUnits="userSpaceOnUse" gradientTransform="matrix(309,56,-6.03077,33.2769,9,117)"><stop offset="0" style="stop-color:rgb(246,135,179);stop-opacity:1"/><stop offset="1" style="stop-color:rgb(102,126,234);stop-opacity:1"/></linearGradient>
    </defs>
</svg>
