<?xml version="1.0" standalone="no"?>
<!DOCTYPE svg PUBLIC "-//W3C//DTD SVG 20010904//EN"
 "http://www.w3.org/TR/2001/REC-SVG-20010904/DTD/svg10.dtd">
<svg version="1.0" xmlns="http://www.w3.org/2000/svg"
 width="700.000000pt" height="700.000000pt" viewBox="0 0 700.000000 700.000000"
 preserveAspectRatio="xMidYMid meet">
<metadata>
Created by potrace 1.11, written by Peter Selinger 2001-2013
</metadata>
<g transform="translate(0.000000,700.000000) scale(0.100000,-0.100000)"
fill="#000000" stroke="none">
<path d="M0 5600 l0 -1400 350 0 350 0 0 1050 0 1050 1050 0 1050 0 0 350 0
350 -1400 0 -1400 0 0 -1400z"/>
<path d="M4200 6650 l0 -350 1050 0 1050 0 0 -1050 0 -1050 350 0 350 0 0
1400 0 1400 -1400 0 -1400 0 0 -350z"/>
<path d="M1695 4495 c-542 -542 -985 -989 -985 -995 0 -6 443 -453 985 -995
l984 -984 246 245 c135 134 245 247 245 250 0 3 -333 338 -740 745 l-741 740
728 728 c401 400 734 735 741 744 12 14 -16 46 -232 261 l-246 246 -985 -985z"/>
<path d="M4067 5229 c-209 -211 -237 -242 -225 -256 7 -9 340 -344 741 -744
l727 -728 -741 -741 -742 -741 24 -26 c13 -15 124 -127 247 -249 l222 -223
990 989 990 990 -985 985 c-542 542 -991 985 -997 984 -7 0 -120 -109 -251
-240z"/>
<path d="M0 1400 l0 -1400 1400 0 1400 0 0 350 0 350 -1050 0 -1050 0 0 1050
0 1050 -350 0 -350 0 0 -1400z"/>
<path d="M6300 1750 l0 -1050 -1050 0 -1050 0 0 -350 0 -350 1400 0 1400 0 0
1400 0 1400 -350 0 -350 0 0 -1050z"/>
</g>
</svg>
