<svg viewBox="0 0 1000 1000" xmlns="http://www.w3.org/2000/svg" fill-rule="evenodd" clip-rule="evenodd" stroke-linejoin="round" stroke-miterlimit="2"><clipPath id="a"><path d="M1000 1000H600V900h300V600h100v400zM100 900h300v100H0V600h100v300zm353.553-187.868l-70.71 70.711L100 500l282.843-282.843 70.71 70.711L241.421 500l212.132 212.132zm92.894 0l70.71 70.711L900 500 617.157 217.157l-70.71 70.711L758.579 500 546.447 712.132zM100 400H0V0h400v100H100v300zM1000 0v400H900V100H600V0h400z"/></clipPath><g clip-path="url(#a)"><path fill="url(#_Linear2)" d="M0 0h1000v1000H0z"/></g><defs><linearGradient id="_Linear2" x1="0" y1="0" x2="1" y2="0" gradientUnits="userSpaceOnUse" gradientTransform="rotate(45) scale(1414.21356)"><stop offset="0" stop-color="#f687b3"/><stop offset="1" stop-color="#667eea"/></linearGradient></defs></svg>